<?xml version="1.0" encoding="UTF-8" standalone="no"?>
<!-- Created with Inkscape (http://www.inkscape.org/) -->
<svg
   xmlns:dc="http://purl.org/dc/elements/1.1/"
   xmlns:cc="http://creativecommons.org/ns#"
   xmlns:rdf="http://www.w3.org/1999/02/22-rdf-syntax-ns#"
   xmlns:svg="http://www.w3.org/2000/svg"
   xmlns="http://www.w3.org/2000/svg"
   xmlns:sodipodi="http://sodipodi.sourceforge.net/DTD/sodipodi-0.dtd"
   xmlns:inkscape="http://www.inkscape.org/namespaces/inkscape"
   width="136.12"
   height="110.1758"
   id="svg2989"
   sodipodi:version="0.32"
   inkscape:version="0.46"
   sodipodi:docbase="/home/ubun/Desktop"
   sodipodi:docname="man-vs-computer.svg"
   version="1.0"
   inkscape:output_extension="org.inkscape.output.svg.inkscape">
  <defs
     id="defs2991">
    <inkscape:perspective
       sodipodi:type="inkscape:persp3d"
       inkscape:vp_x="0 : 58.919998 : 1"
       inkscape:vp_y="0 : 1000 : 0"
       inkscape:vp_z="136.12 : 58.919998 : 1"
       inkscape:persp3d-origin="68.059998 : 39.279999 : 1"
       id="perspective17" />
  </defs>
  <sodipodi:namedview
     id="base"
     pagecolor="#ffffff"
     bordercolor="#666666"
     borderopacity="1.0"
     gridtolerance="10000"
     guidetolerance="10"
     objecttolerance="10"
     inkscape:pageopacity="0.0"
     inkscape:pageshadow="2"
     inkscape:zoom="3.0009657"
     inkscape:cx="67.152971"
     inkscape:cy="61.970442"
     inkscape:document-units="px"
     inkscape:current-layer="layer1"
     inkscape:window-width="946"
     inkscape:window-height="726"
     inkscape:window-x="50"
     inkscape:window-y="25"
     showgrid="false" />
  <metadata
     id="metadata2994">
    <rdf:RDF>
      <cc:Work
         rdf:about="">
        <dc:format>image/svg+xml</dc:format>
        <dc:type
           rdf:resource="http://purl.org/dc/dcmitype/StillImage" />
      </cc:Work>
    </rdf:RDF>
  </metadata>
  <g
     inkscape:label="Layer 1"
     inkscape:groupmode="layer"
     id="layer1"
     transform="translate(-226.635,-419.092)">
    <g
       id="g3021"
       transform="translate(-104.38855,-334.5142)"
       style="fill:#000000;stroke:#000000;stroke-width:2;stroke-miterlimit:4;stroke-dasharray:none;stroke-opacity:1">
      <path
         d="M 400.13,846.962 C 421.03,846.962 438,850.502 438,854.872 C 438,859.242 421.03,862.782 400.13,862.782 C 379.22,862.782 362.25,859.242 362.25,854.872 C 362.25,850.502 379.22,846.962 400.13,846.962 z"
         id="path3023"
         style="fill:#000000;stroke:#000000;stroke-width:2;stroke-miterlimit:4;stroke-dasharray:none;stroke-opacity:1" />
    </g>
    <g
       id="g3025"
       transform="translate(-105.055,-326.85)"
       style="fill:#f4eed7;stroke:#000000;stroke-width:1;stroke-miterlimit:4;stroke-dasharray:none;stroke-opacity:1" />
    <g
       id="g3029"
       transform="translate(-105.055,-326.85)"
       style="fill:#f4eed7;stroke:#000000;stroke-width:2;stroke-miterlimit:4;stroke-dasharray:none;stroke-opacity:1">
      <path
         d="M 332.69,771.402 L 332.69,821.342 C 332.69,834.842 343.74,845.802 357.35,845.802 L 442.15,845.802 C 455.76,845.802 466.81,834.842 466.81,821.342 L 466.81,771.402 C 466.81,757.902 455.76,746.942 442.15,746.942 L 357.35,746.942 C 343.74,746.942 332.69,757.902 332.69,771.402 z"
         id="path3031"
         style="fill:#000000;stroke:#000000;stroke-width:2;stroke-miterlimit:4;stroke-dasharray:none;stroke-opacity:1" />
    </g>
    <g
       id="g3033"
       transform="translate(-105.055,-326.85)"
       style="fill:#1a1a1a;stroke:#000000;stroke-width:1;stroke-miterlimit:4;stroke-dasharray:none;stroke-opacity:1">
      <path
         d="M 347.25,776.672 L 347.25,816.072 C 347.25,826.722 355.9,835.372 366.55,835.372 L 432.95,835.372 C 443.61,835.372 452.25,826.722 452.25,816.072 L 452.25,776.672 C 452.25,766.022 443.61,757.372 432.95,757.372 L 366.55,757.372 C 355.9,757.372 347.25,766.022 347.25,776.672 z"
         id="path3035"
         style="fill:#1a1a1a;stroke:#000000;stroke-width:1;stroke-miterlimit:4;stroke-dasharray:none;stroke-opacity:1" />
    </g>
  </g>
</svg>
