<?xml version="1.0" encoding="UTF-8" standalone="no"?>
<svg
   xmlns:dc="http://purl.org/dc/elements/1.1/"
   xmlns:cc="http://creativecommons.org/ns#"
   xmlns:rdf="http://www.w3.org/1999/02/22-rdf-syntax-ns#"
   xmlns:svg="http://www.w3.org/2000/svg"
   xmlns="http://www.w3.org/2000/svg"
   xmlns:sodipodi="http://sodipodi.sourceforge.net/DTD/sodipodi-0.dtd"
   xmlns:inkscape="http://www.inkscape.org/namespaces/inkscape"
   height="300"
   id="svg1507"
   inkscape:version="0.46"
   sodipodi:version="0.32"
   width="300"
   version="1.0"
   sodipodi:docname="man.svg"
   inkscape:output_extension="org.inkscape.output.svg.inkscape">
  <metadata
     id="metadata21">
    <rdf:RDF>
      <cc:Work
         rdf:about="">
        <dc:format>image/svg+xml</dc:format>
        <dc:type
           rdf:resource="http://purl.org/dc/dcmitype/StillImage" />
      </cc:Work>
    </rdf:RDF>
  </metadata>
  <sodipodi:namedview
     bordercolor="#666666"
     borderopacity="1.0"
     id="base"
     inkscape:current-layer="svg1507"
     inkscape:cx="227.2507"
     inkscape:cy="182.3001"
     inkscape:pageopacity="0.0"
     inkscape:pageshadow="2"
     inkscape:window-height="726"
     inkscape:window-width="960"
     inkscape:window-x="160"
     inkscape:window-y="63"
     inkscape:zoom="1.7366335"
     pagecolor="#ffffff"
     showguides="true"
     inkscape:guide-bbox="true"
     showgrid="true"
     width="300px"
     height="300px">
    <sodipodi:guide
       orientation="horizontal"
       position="280.13365"
       id="guide1920" />
    <sodipodi:guide
       orientation="vertical"
       position="209.60094"
       id="guide1922" />
    <sodipodi:guide
       orientation="vertical"
       position="175.89787"
       id="guide1924" />
    <sodipodi:guide
       orientation="horizontal"
       position="127.83354"
       id="guide1926" />
    <sodipodi:guide
       orientation="vertical"
       position="147.98748"
       id="guide1928" />
    <sodipodi:guide
       orientation="vertical"
       position="101.34551"
       id="guide1930" />
  </sodipodi:namedview>
  <defs
     id="defs1509">
    <inkscape:perspective
       sodipodi:type="inkscape:persp3d"
       inkscape:vp_x="0 : 150 : 1"
       inkscape:vp_y="0 : 1000 : 0"
       inkscape:vp_z="300 : 150 : 1"
       inkscape:persp3d-origin="150 : 100 : 1"
       id="perspective23" />
    <marker
       id="ArrowEnd"
       markerHeight="3"
       markerUnits="strokeWidth"
       markerWidth="4"
       orient="auto"
       refX="0"
       refY="5"
       viewBox="0 0 10 10">
      <path
         d="M 0,0 L 10,5 L 0,10 L 0,0 z "
         id="path1512" />
    </marker>
    <marker
       id="ArrowStart"
       markerHeight="3"
       markerUnits="strokeWidth"
       markerWidth="4"
       orient="auto"
       refX="10"
       refY="5"
       viewBox="0 0 10 10">
      <path
         d="M 10,0 L 0,5 L 10,10 L 10,0 z "
         id="path1515" />
    </marker>
  </defs>
  <g
     id="g2426">
    <g
       transform="matrix(0.609252,0,0,0.609252,85.9256,1.74033e-5)"
       id="g1519">
      <path
         d="M 95.872,81.671 C 118.422,81.671 136.706,63.387 136.706,40.835 C 136.706,18.284 118.422,0 95.872,0 C 73.319,0 55.038,18.284 55.038,40.835 C 55.038,63.387 73.319,81.671 95.872,81.671 z"
         id="path1521"
         style="fill:#000000;stroke:none" />
      <path
         d=""
         id="path1523"
         style="fill:#000000;stroke:none" />
    </g>
    <path
       d="M 117.7121,55.248817 C 100.09436,55.248817 85.9256,69.617416 85.9256,87.539173 L 85.9256,163.92414 C 85.9256,178.77466 107.65945,178.77452 107.65945,163.924 L 107.65945,94.078 L 112.80458,94.078274 L 112.80458,285.327 C 112.80458,305.18252 141.74588,304.59799 141.74588,285.32674 L 141.74588,174.30945 L 146.731,174.30945 L 146.731,285.327 C 146.731,304.59825 175.831,305.18252 175.831,285.327 L 175.831,94.078274 L 179.5187,94.078 L 180.54453,163.924 C 180.54453,178.88905 200.76176,178.88844 200.72277,163.924 L 199.40631,94.078 C 199.40631,77.55204 189.60384,55.282935 170.26009,55.282935 L 117.7121,55.248817 z"
       id="path1525"
       style="fill:#000000;stroke:none"
       sodipodi:nodetypes="ccccccccccccccccccc" />
  </g>
</svg>
